<svg width="686" height="763" viewBox="0 0 686 763" fill="none" xmlns="http://www.w3.org/2000/svg">
<rect width="686" height="763" fill="white"/>
<path d="M33.5 753.721C384.478 652.826 386.358 712.715 660.5 756.5" stroke="black"/>
<path d="M610.631 148.828C606.869 158.013 620.036 178.22 628.5 176.383M470.5 149.746C477.083 145.154 502.476 153.42 489.31 171.79" stroke="black"/>
<path d="M489.5 171.155C478.21 185.592 448.105 160.328 470.684 149.5" stroke="black"/>
<path d="M654.5 762.5C315.732 723.684 438.406 675.626 40.1879 756.031C-25.8672 742.168 25.0896 544.392 27.9205 506.5" stroke="black"/>
<path d="M653.5 762.5C697.051 732.933 671.488 575.861 653.5 519.5" stroke="black"/>
<path d="M28.5 506.643C388.318 490.858 635.456 515.929 652.5 521.5" stroke="black"/>
<path d="M342.5 36.4999C343.78 103.05 345.7 373.87 346.5 500.5" stroke="black"/>
<path d="M369.5 26.4999C706.252 67.1153 672.294 344.038 685.5 482.5" stroke="black"/>
<path d="M638.294 519.5C638.294 349.413 670.394 117.392 364.5 30.4999M653.4 519.5C677.003 505.634 676.059 500.088 685.5 481.6" stroke="black"/>
<path d="M363.5 501.5L363.5 31.5" stroke="black"/>
<path d="M329.5 501.5L329.5 36.4999" stroke="black"/>
<path d="M54.5 484.155C213.913 461.492 565.754 490.5 636.5 490.5" stroke="black"/>
<path d="M313.5 28.4999C2.3856 36.7717 0.500014 275.734 0.5 471.5" stroke="black"/>
<path d="M54.1257 483.5C16.358 154.437 102.28 99.9008 318.5 31.4999" stroke="black"/>
<path d="M52.5 155.689C52.5 179.616 89.6281 120.719 62.7102 139.124" stroke="black"/>
<path d="M28.8527 507.5C23.1778 504.04 6.17487 476.095 0.5 473.5M53.0569 504.743C48.3278 484.851 55.357 484.743 54.4112 483.013" stroke="black"/>
<path d="M199.885 173.5C189.519 166.145 215.904 141.322 222.5 150.515" stroke="black"/>
<path d="M199.5 173.006C209.066 180.209 236.808 159.503 222.459 150.5" stroke="black"/>
<path d="M341.5 36.4999C389.112 31.8846 376.042 2.34609 341.5 0.499939" stroke="black"/>
<path d="M341.5 36.2538C309.123 39.9208 287.22 1.4167 341.5 0.499939" stroke="black"/>
</svg>
