<svg width="1087" height="922" viewBox="0 0 1087 922" fill="none" xmlns="http://www.w3.org/2000/svg">
<rect width="1087" height="922" fill="white"/>
<path d="M684.268 780.967C681.286 782.462 687.25 888.596 697.686 899.06C698.638 898.972 699.634 898.878 700.668 898.779C723.033 905.04 762.851 892.376 766.27 890.091C770.743 887.101 761.797 766.019 758.816 767.514C755.834 769.009 684.268 766.019 684.268 780.967Z" stroke="black"/>
<path d="M523.494 54.5C617.818 48.552 569.908 -10.9274 520.5 2.45547" stroke="black"/>
<path d="M525.5 54.3993C450.508 57.3734 458.008 -6.56727 521.001 2.35465" stroke="black"/>
<path d="M479.5 41.5C-37.9256 185.882 22.0658 491.191 25.0654 796.5" stroke="black"/>
<path d="M471.5 34.5C0.5 111.213 13.9571 463.192 0.5 753.5" stroke="black"/>
<path d="M301.239 888.5C139.648 877.99 0.5 801.419 0.5 751.873M298.247 274.43C298.758 274.43 299.257 274.397 299.743 274.335M299.743 274.335C325.179 257.367 311.703 210.456 274.307 242.352C244.383 267.876 280.292 293.4 299.743 274.335ZM745.997 271.834C746.129 272.346 746.29 272.836 746.477 273.305M746.477 273.305C769.74 294.38 812.425 268.908 771.384 239.702C738.544 216.332 722.695 258.748 746.477 273.305Z" stroke="black"/>
<path d="M258.581 880.998C204.646 237.422 877.341 361.936 827.9 897.5" stroke="black"/>
<path d="M233.86 877.981C184.511 177.926 926.261 367.21 849.991 891.5" stroke="black"/>
<path d="M809.5 885.5C941.5 858.324 1061.5 769.245 1085.5 731.5" stroke="black"/>
<path d="M773.5 907.5C921.763 889.387 1058.05 829.009 1086.5 747.5" stroke="black"/>
<path d="M287.5 887.5C601.711 925.424 552.335 916.673 685.5 907.921" stroke="black"/>
<path d="M288.603 887.5C197.334 324.663 822.751 327.673 809.286 887.5" stroke="black"/>
<line x1="525" y1="54.5" x2="525" y2="466.5" stroke="black"/>
<path d="M558.5 48.5V466.5" stroke="black"/>
<path d="M1051.59 801.5C1083.33 388.885 965.446 111.28 572.5 41.5" stroke="black"/>
<path d="M1086.5 747.5C1073.03 251.81 888.888 67.0523 577.5 29.5" stroke="black"/>
<path d="M1039.61 810.5C1067.97 276.941 885.875 114.619 557.5 54.5" stroke="black"/>
<path d="M43.8066 807.5C-17.5821 206.302 274.388 128.147 488.5 54.5" stroke="black"/>
<path d="M488.153 48.8264L486.657 466.513" stroke="black"/>
<path d="M684.5 908.5C670.5 869.5 679.833 794.5 670.5 773.5" stroke="black"/>
<path d="M670.5 774.5C690.1 742.12 762.469 752.913 768.5 754.455" stroke="black"/>
<path d="M684.5 907.73C692 934.205 774.5 917.074 777.5 901.5" stroke="black"/>
<path d="M767.698 755.01C769.191 753.5 779.642 845.609 776.656 904.5L809.5 886.38M282.5 753.5C394.469 801.82 667.673 782.19 673.644 783.7" stroke="black"/>
<path d="M280.5 766.5C398.65 793.032 573.633 787.446 618.5 786.05" stroke="black"/>
<path d="M280.5 778.5C363.195 809.907 578.622 805.196 674.5 798.915" stroke="black"/>
<line y1="-0.5" x2="34.1214" y2="-0.5" transform="matrix(0.96447 -0.264191 0.262048 0.965055 778.351 887.181)" stroke="black"/>
<line y1="-0.5" x2="33.478" y2="-0.5" transform="matrix(0.893642 -0.448781 0.445649 0.895208 769.376 760.977)" stroke="black"/>
<line y1="-0.5" x2="79.2228" y2="-0.5" transform="matrix(0.981853 -0.189646 0.188052 0.982159 685.607 797.036)" stroke="black"/>
<path d="M772.5 777.5C792.342 773.167 799.974 765.944 801.5 764.5" stroke="black"/>
</svg>
