<svg width="522" height="299" viewBox="0 0 522 299" fill="none" xmlns="http://www.w3.org/2000/svg">
<rect width="522" height="299" fill="white"/>
<path d="M124.853 155.222C58.3526 173.222 28.8526 185.222 9.35257 194.722C-20.6473 226.722 18.3527 357.722 239.353 253.222" stroke="black"/>
<path d="M25.8527 272.222C71.3527 329.222 205.853 275.222 245.853 256.722M126.353 156.222C99.3527 171.722 220.353 287.722 386.353 275.222" stroke="black"/>
<path d="M346.853 16.2217C325.853 15.7217 328.853 -0.778297 348.353 0.721703" stroke="black"/>
<path d="M346.853 16.2217C375.853 17.7217 366.353 -1.77831 348.353 0.721678" stroke="black"/>
<path d="M209.353 240.394C257.853 62.8942 311.353 39.8942 341.353 15.8942M332.853 11.3942C185.853 -4.10584 134.353 138.894 125.853 155.894" stroke="black"/>
<path d="M386.31 274.723C444.407 98.0395 389.315 57.3825 356.761 15.7227" stroke="black"/>
<path d="M366.353 12.2217C413.353 31.7217 451.353 55.2217 476.853 74.7217" stroke="black"/>
<path d="M476.853 74.2217C491.364 87.2553 500.871 108.811 518.384 135.881C527.353 197.222 513.353 163.222 491.353 267.722" stroke="black"/>
<path d="M124.353 155.722C192.353 267.222 367.353 275.222 491.853 263.222" stroke="black"/>
<path d="M485.853 268.722C506.353 149.222 513.353 227.722 515.853 137.222M365.853 10.7217C452.853 41.2217 479.353 75.7217 482.853 81.2217" stroke="black"/>
<path d="M491.853 265.159C518.678 267.157 519.194 220.707 507.845 207.222" stroke="black"/>
<path d="M499.353 235.722C510.353 235.722 510.853 231.722 513.853 227.722M499.353 233.222C506.353 234.222 513.853 226.222 513.853 223.722" stroke="black"/>
<path d="M491.853 267.722C513.853 267.722 527.853 236.222 508.853 205.222" stroke="black"/>
<path d="M386.935 276.222C390.339 275.872 393.652 275.561 396.88 275.284M491.853 269.208C467.802 273.868 439.879 271.593 396.88 275.284M396.88 275.284C439.643 129.439 421.245 85.8556 361.079 16.2217M377.488 276.222C404.353 180.722 427.212 103.89 351.632 18.7265C269.853 73.2217 239.353 167.222 219.853 245.722" stroke="black"/>
<path d="M204.353 238.722C234.353 96.7217 302.853 28.7217 335.353 14.2217" stroke="black"/>
<path d="M333.853 109.722C337.353 93.7217 356.353 106.222 347.853 112.722" stroke="black"/>
<path d="M334.353 109.222C335.853 121.222 348.853 113.222 348.353 112.222" stroke="black"/>
<path d="M228.353 65.7217C241.353 70.2217 241.853 55.2217 238.853 54.2217" stroke="black"/>
<path d="M228.353 65.7217C222.853 55.2217 236.353 51.7217 238.853 54.2217" stroke="black"/>
<path d="M462.353 202.722C468.353 202.222 461.353 187.722 454.353 189.722C447.853 191.222 456.584 205.695 462.584 202.695" stroke="black"/>
<path d="M454.853 94.2217C447.353 89.7217 454.353 76.7217 461.853 88.2217C469.353 97.2217 460.353 100.222 454.853 94.2217Z" stroke="black"/>
</svg>
