<svg width="512" height="298" viewBox="0 0 512 298" fill="none" xmlns="http://www.w3.org/2000/svg">
<rect width="512" height="298" fill="white"/>
<path d="M389.674 155.5C454.822 173.534 483.723 185.557 502.827 195.074C532.217 227.135 494.01 358.382 277.5 253.685" stroke="black"/>
<path d="M486.5 272.146C441.947 328.971 310.245 275.136 271.077 256.693M388.091 156.5C414.529 171.953 296.046 287.598 133.5 275.136" stroke="black"/>
<path d="M171.001 16.5C192.022 15.987 189.019 -0.939966 169.5 0.598854" stroke="black"/>
<path d="M171.5 16.4165C141.717 17.9351 151.473 -1.80653 169.959 0.724434" stroke="black"/>
<path d="M306.356 240.5C258.644 63.133 206.013 40.1503 176.5 16.1682M184.862 11.6716C329.474 -3.8168 380.138 139.076 388.5 156.063" stroke="black"/>
<path d="M132.488 275.5C75.4479 98.8168 129.538 58.1599 161.5 16.5" stroke="black"/>
<path d="M151.5 12.5C105.989 31.844 69.1923 55.156 44.5 74.5" stroke="black"/>
<path d="M44.5 74.5C30.0812 87.5673 20.6345 109.179 3.23253 136.318C-5.67892 197.818 8.23206 163.73 30.0922 268.5" stroke="black"/>
<path d="M389.5 156.5C322.703 267.36 150.798 275.314 28.5 263.383" stroke="black"/>
<path d="M34.9 269.5C14.81 150 7.94997 228.5 5.49997 138M152.5 11.5C67.24 42 41.27 76.5 37.84 82" stroke="black"/>
<path d="M28.5 265.437C2.84114 267.435 2.3477 220.985 13.2034 207.5" stroke="black"/>
<path d="M21.5 236.5C10.8793 236.5 10.3965 232.5 7.49997 228.5M21.5 234C14.7413 235 7.49997 227 7.49997 224.5" stroke="black"/>
<path d="M28.5 268.5C8.13543 268.5 -4.82382 236.748 12.7637 205.5" stroke="black"/>
<path d="M131.489 276.5C128.148 276.15 124.896 275.839 121.727 275.562M28.5 269.486C52.1085 274.146 79.5178 271.871 121.727 275.562M121.727 275.562C79.7502 129.718 97.8097 86.1339 156.87 16.5M140.762 276.5C114.391 181 91.9526 104.169 166.143 19.0048C246.419 73.5 276.358 167.5 295.5 246" stroke="black"/>
<path d="M311.5 239.5C282.187 97.1837 215.256 29.0323 183.5 14.5" stroke="black"/>
<path d="M184.5 110.447C181.036 94.1642 162.233 106.885 170.645 113.5" stroke="black"/>
<path d="M183.5 109.5C182.001 122.351 169.015 113.784 169.514 112.713" stroke="black"/>
<path d="M287.5 65.6832C275.596 70.0592 275.138 55.4724 277.885 54.5" stroke="black"/>
<path d="M287.284 65.5C292.408 55.2331 279.829 51.8108 277.5 54.2553" stroke="black"/>
<path d="M58.6696 203.107C52.9429 202.591 59.6241 187.632 66.3052 189.695C72.5091 191.243 64.1752 206.174 58.4485 203.079" stroke="black"/>
<path d="M65.5506 94.3217C72.4347 89.74 66.0095 76.5039 59.1254 88.2128C52.2412 97.3762 60.5022 100.431 65.5506 94.3217Z" stroke="black"/>
</svg>
