<svg width="271" height="866" viewBox="0 0 271 866" fill="none" xmlns="http://www.w3.org/2000/svg">
<rect width="271" height="866" fill="white"/>
<path d="M31.1494 25.6214C67.1494 145.621 76.6494 191.621 55.1494 272.621" stroke="black"/>
<path d="M59.6494 272.621C112.149 257.621 137.149 217.621 148.149 226.621C155.649 203.621 248.149 234.121 219.149 226.621" stroke="black"/>
<path d="M257.649 698.621C287.149 670.621 257.649 267.121 225.149 228.121" stroke="black"/>
<path d="M223.649 225.121C243.649 168.121 313.149 -84.8786 34.1494 30.1214" stroke="black"/>
<path d="M128.149 192.621C169.649 156.621 166.649 137.621 183.649 100.121" stroke="black"/>
<path d="M65.6494 272.121C111.649 221.621 66.1494 30.1214 57.1494 24.6214" stroke="black"/>
<path d="M101.149 234.121C140.149 199.121 160.649 188.121 189.649 188.121" stroke="black"/>
<path d="M215.149 171.121C238.149 154.621 236.649 129.621 247.649 121.621M151.149 225.621C165.149 273.121 151.149 318.621 151.149 352.121M87.1494 387.621C133.649 334.621 188.149 352.121 225.149 387.621M96.1494 320.121C76.1494 394.121 87.1494 524.621 87.1494 569.121M225.149 312.621C232.149 387.621 225.149 470.121 171.149 615.121" stroke="black"/>
<path d="M140.649 809.621C208.649 737.621 213.649 456.621 221.649 431.121M112.649 477.121C80.1494 526.121 65.1494 758.121 60.1494 779.621" stroke="black"/>
<path d="M61.6494 781.121C114.649 795.121 123.052 801.528 139.649 810.621" stroke="black"/>
<line x1="60.64" y1="781.218" x2="49.64" y2="837.218" stroke="black"/>
<path d="M116.149 865.621L139.684 807.94" stroke="black"/>
<path d="M50.1494 837.121C61.6494 855.621 110.149 863.121 116.649 864.121" stroke="black"/>
<line x1="185.108" y1="704.623" x2="257.108" y2="698.623" stroke="black"/>
<line x1="7.14938" y1="704.621" x2="69.1494" y2="704.621" stroke="black"/>
<line x1="257.649" y1="699.121" x2="257.649" y2="760.121" stroke="black"/>
<path d="M168.149 759.621H257.149" stroke="black"/>
<path d="M7.20566 759.625L63.6494 759.625" stroke="black"/>
<line x1="7.64938" y1="705.121" x2="7.64938" y2="760.121" stroke="black"/>
<path d="M60.6494 272.621C-9.35062 355.621 -4.3506 720.621 7.6494 708.621" stroke="black"/>
<line x1="7.14938" y1="510.621" x2="49.1494" y2="510.621" stroke="black"/>
<path d="M77.1494 629.121C62.1494 606.121 48.1494 569.621 48.1494 510.621" stroke="black"/>
<path d="M242.65 672.121C219.149 595.621 208.65 472.621 219.15 451.121" stroke="black"/>
<path d="M75.6494 645.121C35.6494 607.121 38.1494 529.121 34.6494 511.121" stroke="black"/>
</svg>
