<svg width="496" height="671" viewBox="0 0 496 671" fill="none" xmlns="http://www.w3.org/2000/svg">
<rect width="496" height="671" fill="white"/>
<path d="M138.5 8.16188C191 -4.83813 341 1.16184 346 8.16189C362 18.1619 370 95.6618 364 80.6618C358 65.6618 297.5 157.662 243.5 157.662C189.5 157.662 138.5 66.6618 122.5 80.6618" stroke="black"/>
<path d="M44 669.662C46 669.662 99 667.662 107.5 659.162" stroke="black"/>
<path d="M30.4622 621.662C-32.0378 599.162 17.9622 160.662 47.9622 137.662M93.4622 590.162C65.4622 590.162 80.9622 372.162 80.9622 264.662" stroke="black"/>
<line x1="45.9828" y1="135.532" x2="80.9828" y2="265.532" stroke="black"/>
<path d="M29.5 620.662C47.5 620.662 80.5 617.662 91.5 609.662" stroke="black"/>
<path d="M92.6041 589.662L91.1013 609.714" stroke="black"/>
<path d="M30.5 621.162C32 646.162 47 673.162 43.5 669.662" stroke="black"/>
<path d="M91.5 611.162C94.5 620.162 96.5 659.662 107 659.662" stroke="black"/>
<line x1="24.4554" y1="615.164" x2="91.4554" y2="609.164" stroke="black"/>
<line x1="20.4649" y1="611.163" x2="91.4649" y2="606.163" stroke="black"/>
<path d="M448.5 667.662C446 674.662 380.5 667.662 385 653.662" stroke="black"/>
<path d="M462.947 620.662C530.851 597.929 475.594 158.899 443 135.662M394.5 588.836C424.921 588.836 408.081 368.584 408.081 259.974" stroke="black"/>
<path d="M443 134.662L408.286 260.925" stroke="black"/>
<path d="M464.5 619.662C444.758 619.662 408.565 616.662 396.5 608.662" stroke="black"/>
<path d="M462.5 620.662C460.948 645.76 445.424 672.867 449.046 669.353" stroke="black"/>
<path d="M473.183 614.228L396 605.662" stroke="black"/>
<path d="M476 611.162L398 602.662" stroke="black"/>
<path d="M101 650.662C167.5 675.162 372 656.162 393.5 650.662" stroke="black"/>
<path d="M94.5 593.162C189.5 618.162 345 603.662 398.5 593.162" stroke="black"/>
<path d="M88.5 585.162C165 607.662 373.5 596.662 400.5 585.162" stroke="black"/>
<line x1="398.999" y1="585.7" x2="393.999" y2="650.7" stroke="black"/>
<path d="M443.5 135.662C434.5 115.162 379.5 87.1618 363 80.6618" stroke="black"/>
<path d="M47 137.662C61.4477 106.424 103.34 92.2624 121 85.1758M129 80.6618C129 81.757 125.953 83.1881 121 85.1758M121 85.1758C121 25.6618 126.5 24.1618 139.5 9.16183" stroke="black"/>
<line x1="245" y1="0.661835" x2="245" y2="157.662" stroke="black"/>
<line x1="239" y1="0.661835" x2="239" y2="157.662" stroke="black"/>
<path d="M127 26.6619C163 12.1618 341.5 14.6618 355.5 26.6619" stroke="black"/>
<path d="M130 62.6618C152 83.1618 174.5 77.6618 186.5 83.1618" stroke="black"/>
<path d="M302.5 84.6618C326 84.6618 338 77.1618 357 64.6618" stroke="black"/>
</svg>
