<svg width="265" height="892" viewBox="0 0 265 892" fill="none" xmlns="http://www.w3.org/2000/svg">
<rect width="265" height="892" fill="white"/>
<path d="M216.325 22.7553C184.814 147.591 176.907 195.315 200.077 278.191" stroke="black"/>
<path d="M195.711 278.328C144.342 264.45 118.945 223.958 108.528 233.572C100.595 210.082 11.7109 244.335 39.636 235.723" stroke="black"/>
<path d="M15.7306 723.621C-13.6914 695.64 3.43334 278.653 33.8568 237.451" stroke="black"/>
<path d="M35.2268 234.312C14.1963 176.139 -60.4502 -82.6524 213.543 27.4866" stroke="black"/>
<path d="M126.965 197.906C85.6712 162.039 88.0406 142.355 70.4767 104.199" stroke="black"/>
<path d="M189.875 277.994C143.801 227.311 182.493 28.4559 191.069 22.5116" stroke="black"/>
<path d="M154.346 239.883C115.506 204.972 95.3017 194.249 67.1628 195.128" stroke="black"/>
<path d="M41.9355 178.37C19.1482 162.051 19.8912 136.225 8.98987 128.309M105.588 232.632C93.3577 282.039 108.239 328.535 109.193 363.08M172.305 397.75C125.675 344.504 73.292 364.201 38.4024 401.93M161.648 328.416C183.163 404.12 176.209 539.026 177.477 584.915M36.265 324.589C31.6103 402.142 40.7536 487.005 97.2824 634.895" stroke="black"/>
<path d="M132.42 834.542C64.387 762.354 51.5273 472.735 43.0381 446.681M150.112 490.816C183.044 540.361 204.21 779.147 209.674 801.167" stroke="black"/>
<path d="M208.262 802.759C157.235 818.802 149.264 825.663 133.419 835.543" stroke="black"/>
<line y1="-0.5" x2="58.711" y2="-0.5" transform="matrix(0.208978 0.97792 0.972085 -0.234628 209.717 802.714)" stroke="black"/>
<path d="M157.788 891.547L133.309 832.778" stroke="black"/>
<path d="M221.016 860.159C210.385 879.585 163.539 888.788 157.26 890.016" stroke="black"/>
<line y1="-0.5" x2="70.1475" y2="-0.5" transform="matrix(-0.998368 -0.0571162 -0.0505865 0.99872 86.2631 728.128)" stroke="black"/>
<line y1="-0.5" x2="60.1883" y2="-0.5" transform="matrix(-0.999513 0.0311993 0.0276257 0.999618 258.978 722.737)" stroke="black"/>
<line y1="-0.5" x2="62.9275" y2="-0.5" transform="matrix(0.0276257 0.999618 0.999513 -0.0311993 16.23 724.121)" stroke="black"/>
<path d="M104.311 783.814L17.9542 786.509" stroke="black"/>
<path d="M260.476 778.943L205.708 780.652" stroke="black"/>
<line y1="-0.5" x2="56.7379" y2="-0.5" transform="matrix(0.0276257 0.999618 0.999513 -0.0311993 258.978 722.737)" stroke="black"/>
<path d="M194.74 278.358C265.027 361.828 270.578 738.372 258.592 726.361" stroke="black"/>
<line y1="-0.5" x2="40.7727" y2="-0.5" transform="matrix(-0.999513 0.0311993 0.0276257 0.999618 253.449 522.682)" stroke="black"/>
<path d="M188.89 646.485C202.789 622.312 215.333 584.249 213.652 523.408" stroke="black"/>
<path d="M29.5298 695.839C50.152 616.24 56.8347 489.083 46.0338 467.23" stroke="black"/>
<path d="M190.802 662.939C228.531 622.541 223.882 542.182 226.765 523.514" stroke="black"/>
</svg>
