<svg width="586" height="736" viewBox="0 0 586 736" fill="none" xmlns="http://www.w3.org/2000/svg">
<rect width="586" height="736" fill="white"/>
<path d="M17.7532 669.313C-13.0365 638.248 0.739887 492.752 32.7043 373.885C56.3446 231.641 73.4333 124.71 158.5 105.313" stroke="black"/>
<line x1="106.454" y1="679.811" x2="20.4537" y2="671.811" stroke="black"/>
<line x1="21" y1="671.313" x2="21" y2="722.313" stroke="black"/>
<line x1="106.991" y1="679.408" x2="96.991" y2="731.408" stroke="black"/>
<line x1="20.5588" y1="721.817" x2="96.5588" y2="730.817" stroke="black"/>
<path d="M106.5 679.813C109.5 674.813 115.833 667.48 116.5 652.813" stroke="black"/>
<line x1="111.995" y1="618.24" x2="120.995" y2="679.24" stroke="black"/>
<path d="M117 195.813C117 510.813 71 617.313 117 617.313" stroke="black"/>
<path d="M120.5 680.313C306.93 693.036 293.214 691.568 470.5 680.313" stroke="black"/>
<path d="M113.5 629.313C291 648.813 309 650.313 477.5 629.313" stroke="black"/>
<path d="M569.5 672.813C599.9 641.748 578.496 515.813 557 384.813C533.659 242.57 534.5 152.813 429.5 106.813" stroke="black"/>
<path d="M484.5 683.313L570 674.813" stroke="black"/>
<line x1="569.999" y1="673.341" x2="566.999" y2="726.341" stroke="black"/>
<line y1="-0.5" x2="52.9291" y2="-0.5" transform="matrix(0.186541 0.982447 0.981555 -0.191181 484.5 683.313)" stroke="black"/>
<line y1="-0.5" x2="75.5758" y2="-0.5" transform="matrix(-0.992884 0.119086 0.116131 0.993234 566.538 726.313)" stroke="black"/>
<path d="M484 682.313C481 677.313 474.667 669.98 474 655.313" stroke="black"/>
<line y1="-0.5" x2="61.6438" y2="-0.5" transform="matrix(-0.144152 0.989556 0.989018 0.147792 479.386 618.313)" stroke="black"/>
<path d="M470.5 204.313C474 501.313 511 616.313 479 618.813" stroke="black"/>
<path d="M196 440.813L394.5 439.313" stroke="black"/>
<path d="M446 564.313C438 555.313 399 473.313 395 440.813" stroke="black"/>
<path d="M144 564.813C167.5 526.813 187 479.813 196 441.313" stroke="black"/>
<path d="M375.5 445.813C383.963 494.974 426.187 574.764 437 586.813" stroke="black"/>
<path d="M445.994 564.392L435 628.813" stroke="black"/>
<line x1="143.995" y1="564.239" x2="153.995" y2="631.239" stroke="black"/>
<line x1="440.995" y1="558.383" x2="430.995" y2="629.383" stroke="black"/>
<path d="M153.5 587.813C179 550.813 214 455.813 215.5 445.813" stroke="black"/>
<line x1="148.995" y1="557.246" x2="158.995" y2="631.246" stroke="black"/>
<line x1="196.5" y1="445.813" x2="395.5" y2="445.813" stroke="black"/>
<path d="M159.5 104.813C159.5 102.813 154 86.3132 163 77.8132C155.5 47.3132 178.5 13.5132 180.5 12.3132" stroke="black"/>
<path d="M180.5 12.3132C192 -3.68676 396.5 -3.18676 410 12.3132" stroke="black"/>
<path d="M410.5 12.3132C432 39.8132 427.5 72.8132 427.5 76.8132" stroke="black"/>
<path d="M430 106.313C435.5 86.8132 425 75.3133 427.5 76.3133" stroke="black"/>
<path d="M429.5 106.813C428 106.813 419.5 102.313 419.5 99.8132" stroke="black"/>
<path d="M326.5 128.813C337 114.313 405 63.8132 422 33.3132" stroke="black"/>
<path d="M326.5 120.813C354.5 95.3132 405.5 54.8132 419.5 27.3132" stroke="black"/>
<path d="M265 128.813C249.5 115.813 182 56.8132 169 33.8132" stroke="black"/>
<path d="M171.5 27.8132C183 53.3132 273.5 129.313 265 121.813" stroke="black"/>
<path d="M407 10.3132C395 48.8132 307.5 96.8132 285 137.813" stroke="black"/>
<path d="M183.5 9.81323C195 44.3132 268 88.3132 295 123.813" stroke="black"/>
<line x1="251" y1="0.307135" x2="252" y2="82.3071" stroke="black"/>
<line x1="338" y1="0.313232" x2="338" y2="83.3132" stroke="black"/>
<path d="M196.001 28.3133C229 22.3132 353.5 18.3132 397.501 28.3133" stroke="black"/>
<path d="M192 24.3132C234 10.8132 342 13.8132 399 22.8132" stroke="black"/>
<path d="M205.5 105.313C256.5 151.813 344.5 148.813 384 105.313M271 114.313C279 96.3132 251 101.813 265 114.813M419 100.313C398.5 105.313 378.105 105.239 357 114.1C344.538 119.332 332.796 129.203 325 136.813M325 115.313C339.475 101.954 311.587 95.9137 319.293 113.396" stroke="black"/>
<path d="M206.5 108.313C257.5 154.813 345.5 151.813 385 108.313M270.5 113.813C274.5 103.813 260.5 103.313 264.5 114.313M420 103.313C399.5 108.313 379.105 108.239 358 117.1C345.538 122.332 333.796 132.203 326 139.813M325.207 114.731C332 106.313 319.5 101.231 319.5 112.813" stroke="black"/>
<line x1="284.524" y1="110.814" x2="305.524" y2="111.814" stroke="black"/>
<path d="M232.5 64.8132C244 73.3132 273 90.3132 353.5 70.3132" stroke="black"/>
<line x1="266" y1="106.313" x2="266" y2="201.313" stroke="black"/>
<line x1="271" y1="109.308" x2="271.989" y2="201.308" stroke="black"/>
<line x1="320" y1="112.319" x2="319" y2="201.319" stroke="black"/>
<line x1="326" y1="107.319" x2="324.988" y2="201.318" stroke="black"/>
<line x1="318.5" y1="200.813" x2="324.5" y2="200.813" stroke="black"/>
<line x1="265.5" y1="200.813" x2="271.5" y2="200.813" stroke="black"/>
<path d="M472.5 295.813L536.236 256.889" stroke="black"/>
<path d="M264 134.813C258.5 131.293 221 108.333 207.5 106.813C180.5 106.813 179 98.8132 159 104.813" stroke="black"/>
<line x1="54.7725" y1="258.894" x2="114.772" y2="297.894" stroke="black"/>
<path d="M419.5 99.3132C399 104.313 378.605 104.239 357.5 113.1C345.038 118.332 333.296 128.203 325.5 135.813M265.5 133.813C246.517 124.6 232 110.813 210.634 105.208C176 105.208 176.5 93.8132 159 104.313" stroke="black"/>
</svg>
