<svg width="145" height="372" viewBox="0 0 145 372" fill="none" xmlns="http://www.w3.org/2000/svg">
<rect width="145" height="372" fill="white"/>
<path d="M143.7 347.49C147.645 43.62 137.125 120.731 109.51 28.5898C90.4422 33.8177 70.7174 7.02486 38.5 0.490021" stroke="black"/>
<path d="M144.5 346.886C117.531 367.722 24.7829 360.559 1.76035 352.095C32.0185 77.3222 -39.6802 137.225 38.5964 0.490021M112.926 38.255C76.748 41.5106 59.7503 6.3501 32.781 9.6057" stroke="black"/>
<path d="M99.3944 161.49C140.615 37.9786 10.9686 -31.2922 15.6226 161.49" stroke="black"/>
<line y1="-0.5" x2="16.1287" y2="-0.5" transform="matrix(-0.24369 0.969853 0.970429 0.241386 70.4517 26.2864)" stroke="black"/>
<path d="M144.5 340.49C103.741 359.273 9.07408 349.255 2.50001 344.873" stroke="black"/>
<path d="M99.1086 161.267L84.2952 356.767M15.6086 161.267L37.8161 356.767M37.8161 356.767L39.4632 371.267H83.1965L84.2952 356.767M37.8161 356.767C52.1086 353.767 81.9818 354.767 84.2952 356.767" stroke="black"/>
</svg>
