<svg width="273" height="335" viewBox="0 0 273 335" fill="none" xmlns="http://www.w3.org/2000/svg">
<rect width="273" height="335" fill="white"/>
<path d="M87.0166 8.90801C39.5165 27.408 26.0166 55.408 26.0166 66.408" stroke="black"/>
<path d="M27.0166 65.908C26.0166 67.908 -18.4834 296.408 10.0166 305.908C10.0166 318.075 10 340.108 10 330.908" stroke="black"/>
<path d="M10.0166 332.908C51.0166 335.908 47.5166 331.908 52.0166 332.908" stroke="black"/>
<path d="M56.0166 321.408C54.5166 330.408 52.0166 331.272 52.0166 332.908" stroke="black"/>
<path d="M9.0166 305.908C19.0166 305.908 34.5166 310.908 53.5166 305.908M56.0166 321.908C53.5166 303.408 51.5166 299.908 53.5166 292.408" stroke="black"/>
<path d="M53.5166 292.408C49.0166 288.408 46.5166 281.408 45.5166 276.908" stroke="black"/>
<path d="M48.0166 63.908C48.0166 110.408 43.0166 277.908 45.5166 277.908" stroke="black"/>
<path d="M47.0166 119.908C44.0166 107.408 31.0166 72.908 26.5166 65.908" stroke="black"/>
<path d="M182.5 7.90801C231.557 26.5689 245.5 54.8124 245.5 65.908" stroke="black"/>
<path d="M245.5 65.408C246.518 67.4066 290.83 292.246 261.81 301.739C261.81 313.898 261.81 339.602 261.81 330.408" stroke="black"/>
<path d="M261.5 332.035C219.524 334.339 223.107 331.267 218.5 332.035" stroke="black"/>
<path d="M214.5 320.908C216 329.517 218.5 330.343 218.5 331.908" stroke="black"/>
<path d="M261.5 305.179C251.287 305.179 236.457 310.094 217.053 305.179M214.5 320.908C217.053 302.722 219.096 299.281 217.053 291.908" stroke="black"/>
<path d="M216.5 291.908C221.562 287.779 224.375 280.553 225.5 275.908" stroke="black"/>
<path d="M222.5 62.908C222.5 109.408 227.187 276.908 224.844 276.908" stroke="black"/>
<path d="M224.5 118.908C227.573 106.408 240.89 71.908 245.5 64.908" stroke="black"/>
<path d="M56 322.207C94.869 333.876 199.361 328.875 214 322.207" stroke="black"/>
<path d="M54.5 296.908C69 307.408 209 300.408 218.5 300.408" stroke="black"/>
<path d="M87 8.40801C100.5 27.908 180.5 19.908 183 8.40801" stroke="black"/>
<path d="M87 8.90801L99 0.408013" stroke="black"/>
<line x1="183.248" y1="8.3399" x2="171.248" y2="1.3399" stroke="black"/>
<path d="M98.5 0.908012C124.5 8.90801 169.5 2.90801 171.5 0.908012" stroke="black"/>
</svg>
