<svg width="145" height="372" viewBox="0 0 145 372" fill="none" xmlns="http://www.w3.org/2000/svg">
<rect width="145" height="372" fill="white"/>
<path d="M1.30053 347.49C-2.64455 43.62 7.87543 120.731 35.4904 28.5898C54.5579 33.8177 74.2827 7.02486 106.5 0.490021" stroke="black"/>
<path d="M0.50012 346.886C27.4694 367.722 120.217 360.559 143.24 352.095C112.982 77.3222 184.68 137.225 106.404 0.490021M32.0739 38.255C68.2521 41.5106 85.2499 6.3501 112.219 9.6057" stroke="black"/>
<path d="M45.6057 161.49C4.38465 37.9786 134.032 -31.2922 129.378 161.49" stroke="black"/>
<line y1="-0.5" x2="16.128" y2="-0.5" transform="matrix(0.243517 0.969897 -0.970387 0.241558 74.4926 26.5098)" stroke="black"/>
<path d="M0.50012 340.49C41.2594 359.273 135.926 349.255 142.5 344.873" stroke="black"/>
<path d="M45.5001 161.49L60.4023 356.99M129.5 161.49L107.16 356.99M107.16 356.99L105.503 371.49H61.5075L60.4023 356.99M107.16 356.99C92.7816 353.99 62.7295 354.99 60.4023 356.99" stroke="black"/>
</svg>
