<svg width="272" height="335" viewBox="0 0 272 335" fill="none" xmlns="http://www.w3.org/2000/svg">
<rect width="272" height="335" fill="white"/>
<path d="M182.5 8.5C231.557 27.1609 245.5 55.4043 245.5 66.5" stroke="black"/>
<path d="M244.5 65.5C245.518 67.4986 290.83 295.838 261.81 305.331C261.81 317.49 261.5 339.694 261.5 330.5" stroke="black"/>
<path d="M100 1C100 25 159.5 37 171.5 1" stroke="black"/>
<path d="M87.5 8.5C97 49 176.5 45 183 8.5" stroke="black"/>
<path d="M100.5 0.5C140 8.5 167.5 0.5 171.5 0.5" stroke="black"/>
<path d="M183.5 9C180 3.5 174 4 171.5 0.5" stroke="black"/>
<path d="M86.5 8.99999C96.5 0.999998 98.5 0.999997 100.5 0.999992" stroke="black"/>
<path d="M261.5 332.627C219.524 334.931 223.107 331.859 218.5 332.627" stroke="black"/>
<path d="M214.5 321.5C216 330.109 218.5 330.935 218.5 332.5" stroke="black"/>
<path d="M262.5 305.771C252.287 305.771 236.457 310.686 217.053 305.771M214.5 321.5C217.053 303.314 219.096 299.873 217.053 292.5" stroke="black"/>
<path d="M216.5 292.5C221.562 288.371 224.375 281.145 225.5 276.5" stroke="black"/>
<path d="M222.5 63.5C222.5 110 227.187 277.5 224.844 277.5" stroke="black"/>
<path d="M223.5 119.5C226.573 107 239.89 72.5 244.5 65.5" stroke="black"/>
<path d="M55.5 318.5C94 329 197.5 324.5 212 318.5" stroke="black"/>
<path d="M54.5 293.5C69 304 209 297 218.5 297" stroke="black"/>
<path d="M87.0166 8.5C39.5165 27 26.0166 55 26.0166 66" stroke="black"/>
<path d="M27.0166 65.5C26.0166 67.5 -18.4834 296 10.0166 305.5C10.0166 317.667 10.0166 339.7 10.0166 330.5" stroke="black"/>
<path d="M10 332.5C51 335.5 47.5166 331.5 52.0166 332.5" stroke="black"/>
<path d="M56.0166 321C54.5166 330 52.0166 330.864 52.0166 332.5" stroke="black"/>
<path d="M9.0166 305.5C19.0166 305.5 34.5166 310.5 53.5166 305.5M56.0166 321.5C53.5166 303 51.5166 299.5 53.5166 292" stroke="black"/>
<path d="M53.5166 292C49.0166 288 46.5166 281 45.5166 276.5" stroke="black"/>
<path d="M48.0166 63.5C48.0166 110 43.0166 277.5 45.5166 277.5" stroke="black"/>
<path d="M47.0166 119.5C44.0166 107 31.0166 72.5 26.5166 65.5" stroke="black"/>
<path d="M116.5 20H154.5" stroke="black"/>
<line x1="105.5" y1="14" x2="163.5" y2="14" stroke="black"/>
</svg>
