<svg width="295" height="323" viewBox="0 0 295 323" fill="none" xmlns="http://www.w3.org/2000/svg">
<rect width="295" height="323" fill="white"/>
<path d="M57.1267 314.402C142.127 329.402 214.127 317.902 235.627 314.402" stroke="black"/>
<path d="M247.627 33.9018C223.627 101.902 243.127 230.402 235.627 314.402" stroke="black"/>
<path d="M248.127 33.9022C256.127 38.4018 268.127 65.4018 293.627 144.402C293.627 144.402 240.627 160.902 236.127 160.902" stroke="black"/>
<line x1="235.971" y1="155.427" x2="290.971" y2="137.427" stroke="black"/>
<line x1="235.969" y1="151.427" x2="289.969" y2="133.427" stroke="black"/>
<path d="M183.627 0.988815L247.627 33.9888" stroke="black"/>
<path d="M47.4091 30.5386L109.127 0.488814" stroke="black"/>
<path d="M52.6267 160.884C52.5817 161.619 57.3355 160.981 57.1267 162.989M57.1267 162.989C30.1267 152.989 25.0161 154.359 0.626669 142.816C2.46738 137.797 29.1038 51.5662 47.0507 30.9888C60.6267 58.9888 63.1267 106.086 57.1267 162.989Z" stroke="black"/>
<path d="M3.77724 136.512L57.6267 153.489" stroke="black"/>
<line x1="3.77432" y1="132.511" x2="58.7743" y2="149.511" stroke="black"/>
<line x1="58.1267" y1="162.989" x2="58.1267" y2="313.989" stroke="black"/>
<path d="M58.6267 303.989C143.127 316.489 153.127 313.489 235.627 303.989" stroke="black"/>
<path d="M58.6267 300.989C152.127 317.489 216.127 300.989 234.627 300.989" stroke="black"/>
<path d="M247.627 33.9018C223.627 101.902 243.127 230.402 235.627 314.402" stroke="black"/>
<path d="M248.127 33.9022C256.127 38.4018 268.127 65.4018 293.627 144.402C293.627 144.402 240.627 160.902 236.127 160.902" stroke="black"/>
<line x1="235.971" y1="155.427" x2="290.971" y2="137.427" stroke="black"/>
<line x1="235.969" y1="151.427" x2="289.969" y2="133.427" stroke="black"/>
<path d="M52.6267 160.884C52.5817 161.619 57.3355 160.981 57.1267 162.989M57.1267 162.989C30.1267 152.989 25.0161 154.359 0.626669 142.816C2.46738 137.797 29.1038 51.5662 47.0507 30.9888C60.6267 58.9888 63.1267 106.086 57.1267 162.989Z" stroke="black"/>
<path d="M3.77724 136.512L57.6267 153.489" stroke="black"/>
<line x1="3.77432" y1="132.511" x2="58.7743" y2="149.511" stroke="black"/>
<line x1="58.1267" y1="162.989" x2="58.1267" y2="313.989" stroke="black"/>
<path d="M108.127 0.488815C147.627 8.98882 177.627 3.48882 183.627 0.488815" stroke="black"/>
<path d="M98.6267 6.48882C124.627 18.4888 177.127 17.9888 192.627 6.48882" stroke="black"/>
</svg>
