<svg width="145" height="361" viewBox="0 0 145 361" fill="none" xmlns="http://www.w3.org/2000/svg">
<rect width="145" height="361" fill="white"/>
<path d="M143.7 347.49C147.645 43.62 137.125 120.731 109.51 28.5898C90.4422 33.8177 70.7174 7.02486 38.5 0.490021" stroke="black"/>
<path d="M144.5 346.886C117.531 367.722 24.7829 360.559 1.76035 352.095C32.0185 77.3222 -39.6802 137.225 38.5964 0.490021M112.926 38.255C76.748 41.5106 59.7503 6.3501 32.781 9.6057" stroke="black"/>
<path d="M99.3944 161.49C140.615 37.9786 10.9686 -31.2922 15.6226 161.49" stroke="black"/>
<path d="M98.5 159.49C64.246 170.197 41.8492 167.342 15.5 159.49" stroke="black"/>
<path d="M101.5 148.49C68.9382 153.923 29.2863 150.754 15.5 148.49" stroke="black"/>
<line y1="-0.5" x2="16.1287" y2="-0.5" transform="matrix(-0.24369 0.969853 0.970429 0.241386 70.4517 26.2864)" stroke="black"/>
<line y1="-0.5" x2="185" y2="-0.5" transform="matrix(0 1 1 0 58.5 166.49)" stroke="black"/>
<path d="M144.5 340.49C103.741 359.273 9.07408 349.255 2.50001 344.873" stroke="black"/>
</svg>
