<svg width="295" height="325" viewBox="0 0 295 325" fill="none" xmlns="http://www.w3.org/2000/svg">
<rect width="295" height="325" fill="white"/>
<path d="M57.1267 316.298C142.127 331.298 214.127 319.798 235.627 316.298" stroke="black"/>
<path d="M247.627 35.7985C223.627 103.798 243.127 232.298 235.627 316.298" stroke="black"/>
<path d="M248.127 35.7989C256.127 40.2985 268.127 67.2985 293.627 146.299C293.627 146.299 240.627 162.799 236.127 162.799" stroke="black"/>
<line x1="235.971" y1="157.323" x2="290.971" y2="139.323" stroke="black"/>
<line x1="235.969" y1="153.324" x2="289.969" y2="135.324" stroke="black"/>
<path d="M184.127 1.29848L247.627 35.2985" stroke="black"/>
<line x1="47.3944" y1="32.4428" x2="108.394" y2="0.442772" stroke="black"/>
<path d="M52.6267 162.781C52.5817 163.516 57.3355 162.878 57.1267 164.886M57.1267 164.886C30.1267 154.886 25.0161 156.256 0.626678 144.713C2.46739 139.694 29.1038 53.4629 47.0507 32.8855C60.6267 60.8855 63.1267 107.983 57.1267 164.886Z" stroke="black"/>
<path d="M3.77725 138.409L57.6267 155.386" stroke="black"/>
<line x1="3.77433" y1="134.408" x2="58.7743" y2="151.408" stroke="black"/>
<line x1="58.1267" y1="164.886" x2="58.1267" y2="315.886" stroke="black"/>
<path d="M58.6267 305.886C143.127 318.386 153.127 315.386 235.627 305.886" stroke="black"/>
<path d="M58.6267 302.886C152.127 319.386 216.127 302.886 234.627 302.886" stroke="black"/>
<path d="M108.127 0.885529C136.627 6.38554 151.627 5.88554 184.127 0.885529" stroke="black"/>
<path d="M100.627 5.38554C107.627 49.8855 185.127 45.8855 192.627 6.88554" stroke="black"/>
<path d="M107.627 0.885544C116.627 33.3855 178.127 37.8855 184.627 0.885544" stroke="black"/>
<path d="M247.627 35.7985C223.627 103.798 243.127 232.298 235.627 316.298" stroke="black"/>
<path d="M248.127 35.7989C256.127 40.2985 268.127 67.2985 293.627 146.299C293.627 146.299 240.627 162.799 236.127 162.799" stroke="black"/>
<line x1="235.971" y1="157.323" x2="290.971" y2="139.323" stroke="black"/>
<line x1="235.969" y1="153.324" x2="289.969" y2="135.324" stroke="black"/>
<path d="M184.127 1.29848L247.627 35.2985" stroke="black"/>
<line x1="47.3944" y1="32.4428" x2="108.394" y2="0.442772" stroke="black"/>
<path d="M52.6267 162.781C52.5817 163.516 57.3355 162.878 57.1267 164.886M57.1267 164.886C30.1267 154.886 25.0161 156.256 0.626678 144.713C2.46739 139.694 29.1038 53.4629 47.0507 32.8855C60.6267 60.8855 63.1267 107.983 57.1267 164.886Z" stroke="black"/>
<path d="M3.77725 138.409L57.6267 155.386" stroke="black"/>
<line x1="3.77433" y1="134.408" x2="58.7743" y2="151.408" stroke="black"/>
<line x1="58.1267" y1="164.886" x2="58.1267" y2="315.886" stroke="black"/>
<path d="M100.627 5.38554C107.627 49.8855 185.127 45.8855 192.627 6.88554" stroke="black"/>
<path d="M107.627 0.885544C116.627 33.3855 178.127 37.8855 184.627 0.885544" stroke="black"/>
<path d="M118.627 17.3856L175.636 17.3856" stroke="black"/>
<path d="M114.627 13.3855H179.627" stroke="black"/>
</svg>
