<svg width="111" height="278" viewBox="0 0 111 278" fill="none" xmlns="http://www.w3.org/2000/svg">
<rect width="111" height="278" fill="white"/>
<path d="M1.1088 265.99C-1.89127 33.4899 6.10874 92.4899 27.1088 21.9899C41.6089 25.9899 56.6087 5.4899 81.1087 0.489902" stroke="black"/>
<path d="M0.608734 266.49C21.1087 282.49 91.6087 276.99 109.109 270.49C86.1087 59.4899 140.609 105.49 81.1087 0.489902M24.6087 29.4899C52.1087 31.9899 65.0292 4.9899 85.5292 7.4899" stroke="black"/>
<path d="M35.1087 122.99C4.10876 28.4899 101.609 -24.5101 98.1087 122.99" stroke="black"/>
<path d="M35.1087 122.49C61.1087 129.99 78.1087 127.99 98.1087 122.49" stroke="black"/>
<path d="M32.6087 113.49C57.4087 118.69 87.6087 115.657 98.1087 113.49" stroke="black"/>
<line x1="57.0938" y1="19.3686" x2="60.0938" y2="31.3686" stroke="black"/>
<line x1="66.1087" y1="127.49" x2="66.1087" y2="269.49" stroke="black"/>
<path d="M0.608734 260.99C31.6087 275.99 103.609 267.99 108.609 264.49" stroke="black"/>
</svg>
